<svg id="SvgjsSvg1006" width="1121" height="662" xmlns="http://www.w3.org/2000/svg" version="1.1" xmlns:xlink="http://www.w3.org/1999/xlink" xmlns:svgjs="http://svgjs.com/svgjs"><defs id="SvgjsDefs1007"><marker id="SvgjsMarker1234" markerWidth="16" markerHeight="12" refX="10" refY="6" viewBox="0 0 16 12" orient="auto" markerUnits="userSpaceOnUse" stroke-dasharray="0,0"><path id="SvgjsPath1235" d="M0,3 L10,6 L0,9 L0,3" fill="#323232" stroke="#323232" stroke-width="1"></path></marker></defs><g id="SvgjsG1008" transform="translate(25.00159563337047,25.005998060816864)"><path id="SvgjsPath1009" d="M 0 0L 1071.4285714285713 0L 1071.4285714285713 611.7918436924615L 0 611.7918436924615Z" stroke="none" fill-opacity="1" fill="#ffffff"></path><g id="SvgjsG1010"><text id="SvgjsText1011" font-family="微软雅黑" text-anchor="middle" font-size="13px" width="1052px" fill="#323232" font-weight="400" align="middle" lineHeight="125%" anchor="middle" family="微软雅黑" size="13px" weight="400" font-style="" opacity="1" y="296.27092184623075" transform="rotate(0)"></text></g></g><g id="SvgjsG1012" transform="translate(568.0749147051856,73.27760759989424)"><path id="SvgjsPath1013" d="M 0 4Q 0 0 4 0L 368 0Q 372 0 372 4L 372 488.5651649236679Q 372 492.5651649236679 368 492.5651649236679L 4 492.5651649236679Q 0 492.5651649236679 0 488.5651649236679Z" stroke-dasharray="10,6" stroke="rgba(50,50,50,1)" stroke-width="1" fill-opacity="1" fill="#ffffff"></path><g id="SvgjsG1014"><text id="SvgjsText1015" font-family="微软雅黑" text-anchor="middle" font-size="18px" width="352px" fill="#323232" font-weight="400" align="top" lineHeight="250%" anchor="middle" family="微软雅黑" size="18px" weight="400" font-style="" opacity="1" y="-13.5" transform="rotate(0)"><tspan id="SvgjsTspan1016" dy="45" x="186"><tspan id="SvgjsTspan1017" style="text-decoration:;">区块链</tspan></tspan></text></g></g><g id="SvgjsG1018" transform="translate(550.1939623242332,304.9074054417156)"><path id="SvgjsPath1019" d="M 0 10.55637954711914L 155.00548553466797 10.55637954711914L 155.00548553466797 0L 171 15.994514465332031L 155.00548553466797 31.989028930664062L 155.00548553466797 21.432649383544923L 0 21.432649383544923L 0 10.55637954711914Z" stroke="rgba(50,50,50,1)" stroke-width="1" fill-opacity="1" fill="#99ffcc"></path><g id="SvgjsG1020"><text id="SvgjsText1021" font-family="微软雅黑" text-anchor="middle" font-size="13px" width="171px" fill="#323232" font-weight="400" align="middle" lineHeight="125%" anchor="middle" family="微软雅黑" size="13px" weight="400" font-style="" opacity="1" y="6.369514465332032" transform="rotate(0)"></text></g></g><g id="SvgjsG1022" transform="translate(112.62879871186755,98.30498731703983)"><path id="SvgjsPath1023" d="M 0 4Q 0 0 4 0L 164 0Q 168 0 168 4L 168 256Q 168 260 164 260L 4 260Q 0 260 0 256Z" stroke-dasharray="10,6" stroke="rgba(50,50,50,1)" stroke-width="1" fill-opacity="1" fill="#ffffff"></path><g id="SvgjsG1024"><text id="SvgjsText1025" font-family="微软雅黑" text-anchor="middle" font-size="18px" width="148px" fill="#323232" font-weight="400" align="bottom" lineHeight="125%" anchor="middle" family="微软雅黑" size="18px" weight="400" font-style="" opacity="1" y="235.75" transform="rotate(0)"><tspan id="SvgjsTspan1026" dy="22" x="84"><tspan id="SvgjsTspan1027" style="text-decoration:;">issuer</tspan></tspan></text></g></g><g id="SvgjsG1028" transform="translate(141.62879871186755,121.37180555434449)"><path id="SvgjsPath1029" d="M 0 4Q 0 0 4 0L 106 0Q 110 0 110 4L 110 56Q 110 60 106 60L 4 60Q 0 60 0 56Z" stroke="rgba(50,50,50,1)" stroke-width="1" fill-opacity="1" fill="#ffffff"></path><g id="SvgjsG1030"><text id="SvgjsText1031" font-family="微软雅黑" text-anchor="middle" font-size="18px" width="90px" fill="#323232" font-weight="400" align="middle" lineHeight="125%" anchor="middle" family="微软雅黑" size="18px" weight="400" font-style="" opacity="1" y="5.25" transform="rotate(0)"><tspan id="SvgjsTspan1032" dy="22" x="55"><tspan id="SvgjsTspan1033" style="text-decoration:;">各级各类</tspan></tspan><tspan id="SvgjsTspan1034" dy="22" x="55"><tspan id="SvgjsTspan1035" style="text-decoration:;">教育机构</tspan></tspan></text></g></g><g id="SvgjsG1036" transform="translate(141.62879871186755,202.266661053612)"><path id="SvgjsPath1037" d="M 0 4Q 0 0 4 0L 106 0Q 110 0 110 4L 110 36Q 110 40 106 40L 4 40Q 0 40 0 36Z" stroke="rgba(50,50,50,1)" stroke-width="1" fill-opacity="1" fill="#ffffff"></path><g id="SvgjsG1038"><text id="SvgjsText1039" font-family="微软雅黑" text-anchor="middle" font-size="18px" width="90px" fill="#323232" font-weight="400" align="middle" lineHeight="125%" anchor="middle" family="微软雅黑" size="18px" weight="400" font-style="" opacity="1" y="6.75" transform="rotate(0)"><tspan id="SvgjsTspan1040" dy="22" x="55"><tspan id="SvgjsTspan1041" style="text-decoration:;">企业</tspan></tspan></text></g></g><g id="SvgjsG1042" transform="translate(141.62879871186755,262.32087553115116)"><path id="SvgjsPath1043" d="M 0 4Q 0 0 4 0L 106 0Q 110 0 110 4L 110 56Q 110 60 106 60L 4 60Q 0 60 0 56Z" stroke="rgba(50,50,50,1)" stroke-width="1" fill-opacity="1" fill="#ffffff"></path><g id="SvgjsG1044"><text id="SvgjsText1045" font-family="微软雅黑" text-anchor="middle" font-size="18px" width="90px" fill="#323232" font-weight="400" align="middle" lineHeight="125%" anchor="middle" family="微软雅黑" size="18px" weight="400" font-style="" opacity="1" y="5.25" transform="rotate(0)"><tspan id="SvgjsTspan1046" dy="22" x="55"><tspan id="SvgjsTspan1047" style="text-decoration:;">社会机构与</tspan></tspan><tspan id="SvgjsTspan1048" dy="22" x="55"><tspan id="SvgjsTspan1049" style="text-decoration:;">组织</tspan></tspan></text></g></g><g id="SvgjsG1050" transform="translate(141.62879871186755,476.1730045136952)"><path id="SvgjsPath1051" d="M 0 4Q 0 0 4 0L 106 0Q 110 0 110 4L 110 46Q 110 50 106 50L 4 50Q 0 50 0 46Z" stroke="rgba(50,50,50,1)" stroke-width="1" fill-opacity="1" fill="#ffffff"></path><g id="SvgjsG1052"><text id="SvgjsText1053" font-family="微软雅黑" text-anchor="middle" font-size="18px" width="90px" fill="#323232" font-weight="400" align="middle" lineHeight="125%" anchor="middle" family="微软雅黑" size="18px" weight="400" font-style="" opacity="1" y="11.75" transform="rotate(0)"><tspan id="SvgjsTspan1054" dy="22" x="55"><tspan id="SvgjsTspan1055" style="text-decoration:;">学生/个人</tspan></tspan></text></g></g><g id="SvgjsG1056" transform="translate(336.82704089936766,51.77322424025769)"><path id="SvgjsPath1057" d="M 0 4Q 0 0 4 0L 176 0Q 180 0 180 4L 180 259.90909576416016Q 180 263.90909576416016 176 263.90909576416016L 4 263.90909576416016Q 0 263.90909576416016 0 259.90909576416016Z" stroke="rgba(50,50,50,1)" stroke-width="1" fill-opacity="1" fill="#99ccff"></path><g id="SvgjsG1058"><text id="SvgjsText1059" font-family="微软雅黑" text-anchor="middle" font-size="18px" width="160px" fill="#323232" font-weight="400" align="bottom" lineHeight="125%" anchor="middle" family="微软雅黑" size="18px" weight="400" font-style="" opacity="1" y="239.65909576416016" transform="rotate(0)"><tspan id="SvgjsTspan1060" dy="22" x="90"><tspan id="SvgjsTspan1061" style="text-decoration:;">发布活动与标准</tspan></tspan></text></g></g><g id="SvgjsG1062" transform="translate(391.82704089936766,71.8017047700428)"><path id="SvgjsPath1063" d="M 0 4Q 0 0 4 0L 66 0Q 70 0 70 4L 70 26Q 70 30 66 30L 4 30Q 0 30 0 26Z" stroke="rgba(50,50,50,1)" stroke-width="1" fill-opacity="1" fill="#cfcfcf"></path><g id="SvgjsG1064"><text id="SvgjsText1065" font-family="微软雅黑" text-anchor="middle" font-size="18px" width="50px" fill="#323232" font-weight="400" align="middle" lineHeight="125%" anchor="middle" family="微软雅黑" size="18px" weight="400" font-style="" opacity="1" y="1.75" transform="rotate(0)"><tspan id="SvgjsTspan1066" dy="22" x="35"><tspan id="SvgjsTspan1067" style="text-decoration:;">项目</tspan></tspan></text></g></g><g id="SvgjsG1068" transform="translate(391.82704089936766,151.80170477004268)"><path id="SvgjsPath1069" d="M 0 4Q 0 0 4 0L 66 0Q 70 0 70 4L 70 26Q 70 30 66 30L 4 30Q 0 30 0 26Z" stroke="rgba(50,50,50,1)" stroke-width="1" fill-opacity="1" fill="#cfcfcf"></path><g id="SvgjsG1070"><text id="SvgjsText1071" font-family="微软雅黑" text-anchor="middle" font-size="18px" width="50px" fill="#323232" font-weight="400" align="middle" lineHeight="125%" anchor="middle" family="微软雅黑" size="18px" weight="400" font-style="" opacity="1" y="1.75" transform="rotate(0)"><tspan id="SvgjsTspan1072" dy="22" x="35"><tspan id="SvgjsTspan1073" style="text-decoration:;">课程</tspan></tspan></text></g></g><g id="SvgjsG1074" transform="translate(391.82704089936766,111.80170477004276)"><path id="SvgjsPath1075" d="M 0 4Q 0 0 4 0L 66 0Q 70 0 70 4L 70 26Q 70 30 66 30L 4 30Q 0 30 0 26Z" stroke="rgba(50,50,50,1)" stroke-width="1" fill-opacity="1" fill="#cfcfcf"></path><g id="SvgjsG1076"><text id="SvgjsText1077" font-family="微软雅黑" text-anchor="middle" font-size="18px" width="50px" fill="#323232" font-weight="400" align="middle" lineHeight="125%" anchor="middle" family="微软雅黑" size="18px" weight="400" font-style="" opacity="1" y="1.75" transform="rotate(0)"><tspan id="SvgjsTspan1078" dy="22" x="35"><tspan id="SvgjsTspan1079" style="text-decoration:;">实习</tspan></tspan></text></g></g><g id="SvgjsG1080" transform="translate(391.82704089936766,191.80170477004265)"><path id="SvgjsPath1081" d="M 0 4Q 0 0 4 0L 66 0Q 70 0 70 4L 70 26Q 70 30 66 30L 4 30Q 0 30 0 26Z" stroke="rgba(50,50,50,1)" stroke-width="1" fill-opacity="1" fill="#cfcfcf"></path><g id="SvgjsG1082"><text id="SvgjsText1083" font-family="微软雅黑" text-anchor="middle" font-size="18px" width="50px" fill="#323232" font-weight="400" align="middle" lineHeight="125%" anchor="middle" family="微软雅黑" size="18px" weight="400" font-style="" opacity="1" y="1.75" transform="rotate(0)"><tspan id="SvgjsTspan1084" dy="22" x="35"><tspan id="SvgjsTspan1085" style="text-decoration:;">竞赛</tspan></tspan></text></g></g><g id="SvgjsG1086" transform="translate(391.82704089936766,231.80170477004276)"><path id="SvgjsPath1087" d="M 0 4Q 0 0 4 0L 66 0Q 70 0 70 4L 70 46Q 70 50 66 50L 4 50Q 0 50 0 46Z" stroke="rgba(50,50,50,1)" stroke-width="1" fill-opacity="1" fill="#cfcfcf"></path><g id="SvgjsG1088"><text id="SvgjsText1089" font-family="微软雅黑" text-anchor="middle" font-size="18px" width="50px" fill="#323232" font-weight="400" align="middle" lineHeight="125%" anchor="middle" family="微软雅黑" size="18px" weight="400" font-style="" opacity="1" y="0.25" transform="rotate(0)"><tspan id="SvgjsTspan1090" dy="22" x="35"><tspan id="SvgjsTspan1091" style="text-decoration:;">社会</tspan></tspan><tspan id="SvgjsTspan1092" dy="22" x="35"><tspan id="SvgjsTspan1093" style="text-decoration:;">活动</tspan></tspan></text></g></g><g id="SvgjsG1094" transform="translate(336.82704089936766,332.6089404878162)"><path id="SvgjsPath1095" d="M 0 4Q 0 0 4 0L 176 0Q 180 0 180 4L 180 66Q 180 70 176 70L 4 70Q 0 70 0 66Z" stroke="rgba(50,50,50,1)" stroke-width="1" fill-opacity="1" fill="#99ccff"></path><g id="SvgjsG1096"><text id="SvgjsText1097" font-family="微软雅黑" text-anchor="middle" font-size="18px" width="160px" fill="#323232" font-weight="400" align="middle" lineHeight="125%" anchor="middle" family="微软雅黑" size="18px" weight="400" font-style="" opacity="1" y="10.25" transform="rotate(0)"><tspan id="SvgjsTspan1098" dy="22" x="90"><tspan id="SvgjsTspan1099" style="text-decoration:;">学习活动过程记录</tspan></tspan><tspan id="SvgjsTspan1100" dy="22" x="90"><tspan id="SvgjsTspan1101" style="text-decoration:;">与数据采集</tspan></tspan></text></g></g><g id="SvgjsG1102" transform="translate(336.82704089936766,431.8082736787344)"><path id="SvgjsPath1103" d="M 0 4Q 0 0 4 0L 176 0Q 180 0 180 4L 180 46Q 180 50 176 50L 4 50Q 0 50 0 46Z" stroke="rgba(50,50,50,1)" stroke-width="1" fill-opacity="1" fill="#99ccff"></path><g id="SvgjsG1104"><text id="SvgjsText1105" font-family="微软雅黑" text-anchor="middle" font-size="18px" width="160px" fill="#323232" font-weight="400" align="middle" lineHeight="125%" anchor="middle" family="微软雅黑" size="18px" weight="400" font-style="" opacity="1" y="11.75" transform="rotate(0)"><tspan id="SvgjsTspan1106" dy="22" x="90"><tspan id="SvgjsTspan1107" style="text-decoration:;">学习活动过程记录</tspan></tspan></text></g></g><g id="SvgjsG1108" transform="translate(336.82704089936766,507.9473575410391)"><path id="SvgjsPath1109" d="M 0 4Q 0 0 4 0L 176 0Q 180 0 180 4L 180 66Q 180 70 176 70L 4 70Q 0 70 0 66Z" stroke="rgba(50,50,50,1)" stroke-width="1" fill-opacity="1" fill="#99ccff"></path><g id="SvgjsG1110"><text id="SvgjsText1111" font-family="微软雅黑" text-anchor="middle" font-size="18px" width="160px" fill="#323232" font-weight="400" align="middle" lineHeight="125%" anchor="middle" family="微软雅黑" size="18px" weight="400" font-style="" opacity="1" y="10.25" transform="rotate(0)"><tspan id="SvgjsTspan1112" dy="22" x="90"><tspan id="SvgjsTspan1113" style="text-decoration:;">获得目标证书、学</tspan></tspan><tspan id="SvgjsTspan1114" dy="22" x="90"><tspan id="SvgjsTspan1115" style="text-decoration:;">分等成果</tspan></tspan></text></g></g><g id="SvgjsG1116" transform="translate(315.62879871186766,93.80170477004279)"><path id="SvgjsPath1117" d="M 19.833333333333332 0L 0 0L 0 269.00656509399414L 19.833333333333332 269.00656509399414" stroke="rgba(50,50,50,1)" stroke-width="1" fill="none"></path><path id="SvgjsPath1118" d="M 0 0L 119 0L 119 269.00656509399414L 0 269.00656509399414Z" stroke="none" fill="none"></path><g id="SvgjsG1119"><text id="SvgjsText1120" font-family="微软雅黑" text-anchor="middle" font-size="13px" width="99px" fill="#323232" font-weight="400" align="middle" lineHeight="125%" anchor="middle" family="微软雅黑" size="13px" weight="400" font-style="" opacity="1" y="124.87828254699707" transform="rotate(0)"></text></g></g><g id="SvgjsG1121"><path id="SvgjsPath1122" d="M280.62879871186755 228.30498731703983L298.12879871186766 228.30498731703983L298.12879871186766 228.30498731703983L315.62879871186766 228.30498731703983" stroke="#323232" stroke-width="1" fill="none"></path></g><g id="SvgjsG1123" transform="translate(315.62879871186766,455.8017047700428)"><path id="SvgjsPath1124" d="M 19.833333333333332 0L 0 0L 0 90.74259948730469L 19.833333333333332 90.74259948730469" stroke="rgba(50,50,50,1)" stroke-width="1" fill="none"></path><path id="SvgjsPath1125" d="M 0 0L 119 0L 119 90.74259948730469L 0 90.74259948730469Z" stroke="none" fill="none"></path><g id="SvgjsG1126"><text id="SvgjsText1127" font-family="微软雅黑" text-anchor="middle" font-size="13px" width="99px" fill="#323232" font-weight="400" align="middle" lineHeight="125%" anchor="middle" family="微软雅黑" size="13px" weight="400" font-style="" opacity="1" y="35.746299743652344" transform="rotate(0)"></text></g></g><g id="SvgjsG1128"><path id="SvgjsPath1129" d="M251.62879871186755 501.17300451369533L283.62879871186755 501.17300451369533L283.62879871186755 501.17300451369533L315.62879871186766 501.17300451369533" stroke="#323232" stroke-width="1" fill="none"></path></g><g id="SvgjsG1130" transform="matrix(-1,1.2246467991473532e-16,-1.2246467991473532e-16,-1,537.6287841796875,546.8082695007324)"><path id="SvgjsPath1131" d="M 18.666666666666675 0L 0 0L 0 453.00656509399414L 18.666666666666675 453.00656509399414" stroke="rgba(50,50,50,1)" stroke-width="1" fill="none"></path><path id="SvgjsPath1132" d="M 0 0L 112.00000000000006 0L 112.00000000000006 453.00656509399414L 0 453.00656509399414Z" stroke="none" fill="none"></path><g id="SvgjsG1133"><text id="SvgjsText1134" font-family="微软雅黑" text-anchor="middle" font-size="13px" width="93px" fill="#323232" font-weight="400" align="middle" lineHeight="125%" anchor="middle" family="微软雅黑" size="13px" weight="400" font-style="" opacity="1" y="216.87828254699707" transform="rotate(0)"></text></g></g><g id="SvgjsG1135" transform="translate(729.6939623242332,120.90191990704758)"><path id="SvgjsPath1136" d="M 0 0L 40 0L 40 420L 0 420Z" stroke="rgba(50,50,50,1)" stroke-width="1" fill-opacity="1" fill="#ffffff"></path><g id="SvgjsG1137"><text id="SvgjsText1138" font-family="微软雅黑" text-anchor="middle" font-size="18px" width="20px" fill="#323232" font-weight="400" align="middle" lineHeight="125%" anchor="middle" family="微软雅黑" size="18px" weight="400" font-style="" opacity="1" y="129.25" transform="rotate(0)"><tspan id="SvgjsTspan1139" dy="22" x="20"><tspan id="SvgjsTspan1140" style="text-decoration:;">智</tspan></tspan><tspan id="SvgjsTspan1141" dy="22" x="20"><tspan id="SvgjsTspan1142" style="text-decoration:;"> </tspan></tspan><tspan id="SvgjsTspan1143" dy="22" x="20"><tspan id="SvgjsTspan1144" style="text-decoration:;">能</tspan></tspan><tspan id="SvgjsTspan1145" dy="22" x="20"><tspan id="SvgjsTspan1146" style="text-decoration:;"> </tspan></tspan><tspan id="SvgjsTspan1147" dy="22" x="20"><tspan id="SvgjsTspan1148" style="text-decoration:;">合</tspan></tspan><tspan id="SvgjsTspan1149" dy="22" x="20"><tspan id="SvgjsTspan1150" style="text-decoration:;"> </tspan></tspan><tspan id="SvgjsTspan1151" dy="22" x="20"><tspan id="SvgjsTspan1152" style="text-decoration:;">约</tspan></tspan></text></g></g><g id="SvgjsG1153" transform="translate(864.8606289908998,230.8926090058826)"><path id="SvgjsPath1154" d="M 0 4Q 0 0 4 0L 36 0Q 40 0 40 4L 40 176Q 40 180 36 180L 4 180Q 0 180 0 176Z" stroke="rgba(50,50,50,1)" stroke-width="1" fill-opacity="1" fill="#ffffff"></path><g id="SvgjsG1155"><text id="SvgjsText1156" font-family="微软雅黑" text-anchor="middle" font-size="18px" width="20px" fill="#323232" font-weight="400" align="middle" lineHeight="125%" anchor="middle" family="微软雅黑" size="18px" weight="400" font-style="" opacity="1" y="20.25" transform="rotate(0)"><tspan id="SvgjsTspan1157" dy="22" x="20"><tspan id="SvgjsTspan1158" style="text-decoration:;">学</tspan></tspan><tspan id="SvgjsTspan1159" dy="22" x="20"><tspan id="SvgjsTspan1160" style="text-decoration:;">习</tspan></tspan><tspan id="SvgjsTspan1161" dy="22" x="20"><tspan id="SvgjsTspan1162" style="text-decoration:;">成</tspan></tspan><tspan id="SvgjsTspan1163" dy="22" x="20"><tspan id="SvgjsTspan1164" style="text-decoration:;">果</tspan></tspan><tspan id="SvgjsTspan1165" dy="22" x="20"><tspan id="SvgjsTspan1166" style="text-decoration:;">认</tspan></tspan><tspan id="SvgjsTspan1167" dy="22" x="20"><tspan id="SvgjsTspan1168" style="text-decoration:;">证</tspan></tspan></text></g></g><g id="SvgjsG1169" transform="translate(565.6939623242332,120.90191990704758)"><path id="SvgjsPath1170" d="M 0 0L 140 0L 140 40L 0 40Z" stroke="none" fill="none"></path><g id="SvgjsG1171"><text id="SvgjsText1172" font-family="微软雅黑" text-anchor="middle" font-size="18px" width="140px" fill="#323232" font-weight="400" align="middle" lineHeight="125%" anchor="middle" family="微软雅黑" size="18px" weight="400" font-style="" opacity="1" y="6.75" transform="rotate(0)"><tspan id="SvgjsTspan1173" dy="22" x="70"><tspan id="SvgjsTspan1174" style="text-decoration:;">发布共识标准</tspan></tspan></text></g></g><g id="SvgjsG1175" transform="translate(565.6052432741438,455.225942339216)"><path id="SvgjsPath1176" d="M 0 0L 140 0L 140 40L 0 40Z" stroke="none" fill="none"></path><g id="SvgjsG1177"><text id="SvgjsText1178" font-family="微软雅黑" text-anchor="middle" font-size="18px" width="140px" fill="#323232" font-weight="400" align="middle" lineHeight="125%" anchor="middle" family="微软雅黑" size="18px" weight="400" font-style="" opacity="1" y="6.75" transform="rotate(0)"><tspan id="SvgjsTspan1179" dy="22" x="70"><tspan id="SvgjsTspan1180" style="text-decoration:;">触发共识机制</tspan></tspan></text></g></g><g id="SvgjsG1181" transform="translate(565.8270408993675,275.225942339216)"><path id="SvgjsPath1182" d="M 0 0L 140 0L 140 40L 0 40Z" stroke="none" fill="none"></path><g id="SvgjsG1183"><text id="SvgjsText1184" font-family="微软雅黑" text-anchor="middle" font-size="18px" width="140px" fill="#323232" font-weight="400" align="middle" lineHeight="125%" anchor="middle" family="微软雅黑" size="18px" weight="400" font-style="" opacity="1" y="6.75" transform="rotate(0)"><tspan id="SvgjsTspan1185" dy="22" x="70"><tspan id="SvgjsTspan1186" style="text-decoration:;">学习及工作记录</tspan></tspan></text></g></g><g id="SvgjsG1187" transform="translate(749.8270408993675,275.225942339216)"><path id="SvgjsPath1188" d="M 0 0L 120 0L 120 40L 0 40Z" stroke="none" fill="none"></path><g id="SvgjsG1189"><text id="SvgjsText1190" font-family="微软雅黑" text-anchor="middle" font-size="18px" width="120px" fill="#323232" font-weight="400" align="middle" lineHeight="125%" anchor="middle" family="微软雅黑" size="18px" weight="400" font-style="" opacity="1" y="6.75" transform="rotate(0)"><tspan id="SvgjsTspan1191" dy="22" x="60"><tspan id="SvgjsTspan1192" style="text-decoration:;">自动认证</tspan></tspan></text></g></g><g id="SvgjsG1193" transform="translate(550.1939623242332,485.1784900483633)"><path id="SvgjsPath1194" d="M 0 10.55637954711914L 155.00548553466797 10.55637954711914L 155.00548553466797 0L 171 15.994514465332031L 155.00548553466797 31.989028930664062L 155.00548553466797 21.432649383544923L 0 21.432649383544923L 0 10.55637954711914Z" stroke="rgba(50,50,50,1)" stroke-width="1" fill-opacity="1" fill="#99ffcc"></path><g id="SvgjsG1195"><text id="SvgjsText1196" font-family="微软雅黑" text-anchor="middle" font-size="13px" width="171px" fill="#323232" font-weight="400" align="middle" lineHeight="125%" anchor="middle" family="微软雅黑" size="13px" weight="400" font-style="" opacity="1" y="6.369514465332032" transform="rotate(0)"></text></g></g><g id="SvgjsG1197" transform="translate(554.1939623242332,150.80719030471064)"><path id="SvgjsPath1198" d="M 0 10.55637954711914L 155.00548553466797 10.55637954711914L 155.00548553466797 0L 171 15.994514465332031L 155.00548553466797 31.989028930664062L 155.00548553466797 21.432649383544923L 0 21.432649383544923L 0 10.55637954711914Z" stroke="rgba(50,50,50,1)" stroke-width="1" fill-opacity="1" fill="#99ffcc"></path><g id="SvgjsG1199"><text id="SvgjsText1200" font-family="微软雅黑" text-anchor="middle" font-size="13px" width="171px" fill="#323232" font-weight="400" align="middle" lineHeight="125%" anchor="middle" family="微软雅黑" size="13px" weight="400" font-style="" opacity="1" y="6.369514465332032" transform="rotate(0)"></text></g></g><g id="SvgjsG1201" transform="translate(773.9439623242342,305.225942339216)"><path id="SvgjsPath1202" d="M 0 10.55637954711914L 71.00548553466797 10.55637954711914L 71.00548553466797 0L 87 15.994514465332031L 71.00548553466797 31.989028930664062L 71.00548553466797 21.432649383544923L 0 21.432649383544923L 0 10.55637954711914Z" stroke="rgba(50,50,50,1)" stroke-width="1" fill-opacity="1" fill="#99ffcc"></path><g id="SvgjsG1203"><text id="SvgjsText1204" font-family="微软雅黑" text-anchor="middle" font-size="13px" width="87px" fill="#323232" font-weight="400" align="middle" lineHeight="125%" anchor="middle" family="微软雅黑" size="13px" weight="400" font-style="" opacity="1" y="6.369514465332032" transform="rotate(0)"></text></g></g><g id="SvgjsG1205" transform="translate(994.6065615699404,181.22045680454795)"><path id="SvgjsPath1206" d="M 0 4Q 0 0 4 0L 36 0Q 40 0 40 4L 40 276Q 40 280 36 280L 4 280Q 0 280 0 276Z" stroke="rgba(50,50,50,1)" stroke-width="1" fill-opacity="1" fill="#ffffff"></path><g id="SvgjsG1207"><text id="SvgjsText1208" font-family="微软雅黑" text-anchor="middle" font-size="18px" width="20px" fill="#323232" font-weight="400" align="middle" lineHeight="125%" anchor="middle" family="微软雅黑" size="18px" weight="400" font-style="" opacity="1" y="59.25" transform="rotate(0)"><tspan id="SvgjsTspan1209" dy="22" x="20"><tspan id="SvgjsTspan1210" style="text-decoration:;">结</tspan></tspan><tspan id="SvgjsTspan1211" dy="22" x="20"><tspan id="SvgjsTspan1212" style="text-decoration:;"> </tspan></tspan><tspan id="SvgjsTspan1213" dy="22" x="20"><tspan id="SvgjsTspan1214" style="text-decoration:;">果</tspan></tspan><tspan id="SvgjsTspan1215" dy="22" x="20"><tspan id="SvgjsTspan1216" style="text-decoration:;"> </tspan></tspan><tspan id="SvgjsTspan1217" dy="22" x="20"><tspan id="SvgjsTspan1218" style="text-decoration:;">呈</tspan></tspan><tspan id="SvgjsTspan1219" dy="22" x="20"><tspan id="SvgjsTspan1220" style="text-decoration:;"> </tspan></tspan><tspan id="SvgjsTspan1221" dy="22" x="20"><tspan id="SvgjsTspan1222" style="text-decoration:;">现</tspan></tspan></text></g></g><g id="SvgjsG1223" transform="translate(912.1384067686766,305.225942339216)"><path id="SvgjsPath1224" d="M 0 10.55637954711914L 59.00548553466797 10.55637954711914L 59.00548553466797 0L 75 15.994514465332031L 59.00548553466797 31.989028930664062L 59.00548553466797 21.432649383544923L 0 21.432649383544923L 0 10.55637954711914Z" stroke="rgba(50,50,50,1)" stroke-width="1" fill-opacity="1" fill="#99ffcc"></path><g id="SvgjsG1225"><text id="SvgjsText1226" font-family="微软雅黑" text-anchor="middle" font-size="13px" width="75px" fill="#323232" font-weight="400" align="middle" lineHeight="125%" anchor="middle" family="微软雅黑" size="13px" weight="400" font-style="" opacity="1" y="6.369514465332032" transform="rotate(0)"></text></g></g><g id="SvgjsG1227" transform="translate(87.85873849051339,148.03563290550613)"><path id="SvgjsPath1228" d="M 20 0L 0 0L 0 357.85937559036955L 20 357.85937559036955" stroke="rgba(50,50,50,1)" stroke-width="1" fill="none"></path><path id="SvgjsPath1229" d="M 0 0L 124.28571428571425 0L 124.28571428571425 357.85937559036955L 0 357.85937559036955Z" stroke="none" fill="none"></path><g id="SvgjsG1230"><text id="SvgjsText1231" font-family="微软雅黑" text-anchor="middle" font-size="13px" width="105px" fill="#323232" font-weight="400" align="middle" lineHeight="125%" anchor="middle" family="微软雅黑" size="13px" weight="400" font-style="" opacity="1" y="169.30468779518478" transform="rotate(0)"></text></g></g><g id="SvgjsG1232"><path id="SvgjsPath1233" d="M1034.6065615699404 321.22045680454795L1064.6065615699404 321.22045680454795L1064.6065615699404 604.4664370673042L57.85873849051339 604.4664370673042L57.85873849051339 326.9653207006909L87.85873849051339 326.9653207006909" stroke="#323232" stroke-width="1" fill="none" marker-end="url(#SvgjsMarker1234)"></path><rect id="SvgjsRect1236" width="36" height="22" x="546.1050819782982" y="593.4664370673042" fill="#ffffff"></rect><text id="SvgjsText1237" font-family="微软雅黑" text-anchor="middle" font-size="18px" width="36px" fill="#323232" font-weight="400" align="top" lineHeight="23px" anchor="middle" family="微软雅黑" size="18px" weight="400" font-style="" opacity="1" y="591.2164370673042" transform="rotate(0)"><tspan id="SvgjsTspan1238" dy="22" x="564.1050819782982"><tspan id="SvgjsTspan1239" style="text-decoration:;">反馈</tspan></tspan></text></g></svg>