<svg id="SvgjsSvg1169" width="682.714111328125" height="631.9277038574219" xmlns="http://www.w3.org/2000/svg" version="1.1" xmlns:xlink="http://www.w3.org/1999/xlink" xmlns:svgjs="http://svgjs.com/svgjs"><defs id="SvgjsDefs1170"></defs><rect id="SvgjsRect1171" width="682.714111328125" height="631.9277038574219" fill="#ffffff"></rect><g id="SvgjsG1172" transform="translate(161.71968925850183,25.06486752158702)"><path id="SvgjsPath1173" d="M 0 4Q 0 0 4 0L 492 0Q 496 0 496 4L 496 55.87943900258904Q 496 59.87943900258904 492 59.87943900258904L 4 59.87943900258904Q 0 59.87943900258904 0 55.87943900258904Z" stroke-dasharray="10,6" stroke="rgba(50,50,50,1)" stroke-width="1" fill-opacity="1" fill="#ccffcc"></path><g id="SvgjsG1174"><text id="SvgjsText1175" font-family="微软雅黑" text-anchor="middle" font-size="18px" width="476px" fill="#323232" font-weight="400" align="middle" lineHeight="125%" anchor="middle" family="微软雅黑" size="18px" weight="400" font-style="" opacity="1" y="16.68971950129452" transform="rotate(0)"><tspan id="SvgjsTspan1176" dy="22" x="248"><tspan id="SvgjsTspan1177" style="text-decoration:;">用户界面（手机APP、网页端）</tspan></tspan></text></g></g><g id="SvgjsG1178" transform="translate(160.6571807861328,106.43264629966279)"><path id="SvgjsPath1179" d="M 0 4Q 0 0 4 0L 492.17334275269786 0Q 496.17334275269786 0 496.17334275269786 4L 496.17334275269786 99.3391099227108Q 496.17334275269786 103.3391099227108 492.17334275269786 103.3391099227108L 4 103.3391099227108Q 0 103.3391099227108 0 99.3391099227108Z" stroke-dasharray="10,6" stroke="rgba(50,50,50,1)" stroke-width="1" fill-opacity="1" fill="#ffcc99"></path><g id="SvgjsG1180"><text id="SvgjsText1181" font-family="微软雅黑" text-anchor="middle" font-size="18px" width="477px" fill="#323232" font-weight="400" align="middle" lineHeight="125%" anchor="middle" family="微软雅黑" size="18px" weight="400" font-style="" opacity="1" y="38.4195549613554" transform="rotate(0)"></text></g></g><g id="SvgjsG1182" transform="translate(178.6571807861328,120.90144313301039)"><path id="SvgjsPath1183" d="M 0 4Q 0 0 4 0L 96 0Q 100 0 100 4L 100 66Q 100 70 96 70L 4 70Q 0 70 0 66Z" stroke="rgba(50,50,50,1)" stroke-width="1" fill-opacity="1" fill="#ffffff"></path><g id="SvgjsG1184"><text id="SvgjsText1185" font-family="微软雅黑" text-anchor="middle" font-size="18px" width="80px" fill="#323232" font-weight="400" align="middle" lineHeight="125%" anchor="middle" family="微软雅黑" size="18px" weight="400" font-style="" opacity="1" y="10.25" transform="rotate(0)"><tspan id="SvgjsTspan1186" dy="22" x="50"><tspan id="SvgjsTspan1187" style="text-decoration:;">各级各类</tspan></tspan><tspan id="SvgjsTspan1188" dy="22" x="50"><tspan id="SvgjsTspan1189" style="text-decoration:;">教育机构</tspan></tspan></text></g></g><g id="SvgjsG1190" transform="translate(298.6571807861328,120.90144313301039)"><path id="SvgjsPath1191" d="M 0 4Q 0 0 4 0L 96 0Q 100 0 100 4L 100 66Q 100 70 96 70L 4 70Q 0 70 0 66Z" stroke="rgba(50,50,50,1)" stroke-width="1" fill-opacity="1" fill="#ffffff"></path><g id="SvgjsG1192"><text id="SvgjsText1193" font-family="微软雅黑" text-anchor="middle" font-size="18px" width="80px" fill="#323232" font-weight="400" align="middle" lineHeight="125%" anchor="middle" family="微软雅黑" size="18px" weight="400" font-style="" opacity="1" y="21.75" transform="rotate(0)"><tspan id="SvgjsTspan1194" dy="22" x="50"><tspan id="SvgjsTspan1195" style="text-decoration:;">企业</tspan></tspan></text></g></g><g id="SvgjsG1196" transform="translate(418.6571807861328,120.90144313301039)"><path id="SvgjsPath1197" d="M 0 4Q 0 0 4 0L 96 0Q 100 0 100 4L 100 66Q 100 70 96 70L 4 70Q 0 70 0 66Z" stroke="rgba(50,50,50,1)" stroke-width="1" fill-opacity="1" fill="#ffffff"></path><g id="SvgjsG1198"><text id="SvgjsText1199" font-family="微软雅黑" text-anchor="middle" font-size="18px" width="80px" fill="#323232" font-weight="400" align="middle" lineHeight="125%" anchor="middle" family="微软雅黑" size="18px" weight="400" font-style="" opacity="1" y="21.75" transform="rotate(0)"><tspan id="SvgjsTspan1200" dy="22" x="50"><tspan id="SvgjsTspan1201" style="text-decoration:;">社区</tspan></tspan></text></g></g><g id="SvgjsG1202" transform="translate(538.6571807861328,120.90144313301039)"><path id="SvgjsPath1203" d="M 0 4Q 0 0 4 0L 96 0Q 100 0 100 4L 100 66Q 100 70 96 70L 4 70Q 0 70 0 66Z" stroke="rgba(50,50,50,1)" stroke-width="1" fill-opacity="1" fill="#ffffff"></path><g id="SvgjsG1204"><text id="SvgjsText1205" font-family="微软雅黑" text-anchor="middle" font-size="18px" width="80px" fill="#323232" font-weight="400" align="middle" lineHeight="125%" anchor="middle" family="微软雅黑" size="18px" weight="400" font-style="" opacity="1" y="21.75" transform="rotate(0)"><tspan id="SvgjsTspan1206" dy="22" x="50"><tspan id="SvgjsTspan1207" style="text-decoration:;">社会组织</tspan></tspan></text></g></g><g id="SvgjsG1208" transform="translate(161.01021103883056,233.1801276184948)"><path id="SvgjsPath1209" d="M 0 4Q 0 0 4 0L 492 0Q 496 0 496 4L 496 185.30803855480372Q 496 189.30803855480372 492 189.30803855480372L 4 189.30803855480372Q 0 189.30803855480372 0 185.30803855480372Z" stroke-dasharray="10,6" stroke="rgba(50,50,50,1)" stroke-width="1" fill-opacity="1" fill="#99ffff"></path><g id="SvgjsG1210"><text id="SvgjsText1211" font-family="微软雅黑" text-anchor="middle" font-size="18px" width="476px" fill="#323232" font-weight="400" align="middle" lineHeight="125%" anchor="middle" family="微软雅黑" size="18px" weight="400" font-style="" opacity="1" y="81.40401927740186" transform="rotate(0)"></text></g></g><g id="SvgjsG1212" transform="translate(178.6571807861328,251.47100830078125)"><path id="SvgjsPath1213" d="M 0 4Q 0 0 4 0L 96 0Q 100 0 100 4L 100 66Q 100 70 96 70L 4 70Q 0 70 0 66Z" stroke="rgba(50,50,50,1)" stroke-width="1" fill-opacity="1" fill="#ffffff"></path><g id="SvgjsG1214"><text id="SvgjsText1215" font-family="微软雅黑" text-anchor="middle" font-size="18px" width="80px" fill="#323232" font-weight="400" align="middle" lineHeight="125%" anchor="middle" family="微软雅黑" size="18px" weight="400" font-style="" opacity="1" y="21.75" transform="rotate(0)"><tspan id="SvgjsTspan1216" dy="22" x="50"><tspan id="SvgjsTspan1217" style="text-decoration:;">发布项目</tspan></tspan></text></g></g><g id="SvgjsG1218" transform="translate(178.6571807861328,334.7047567182635)"><path id="SvgjsPath1219" d="M 0 4Q 0 0 4 0L 96 0Q 100 0 100 4L 100 66Q 100 70 96 70L 4 70Q 0 70 0 66Z" stroke="rgba(50,50,50,1)" stroke-width="1" fill-opacity="1" fill="#ffffff"></path><g id="SvgjsG1220"><text id="SvgjsText1221" font-family="微软雅黑" text-anchor="middle" font-size="18px" width="80px" fill="#323232" font-weight="400" align="middle" lineHeight="125%" anchor="middle" family="微软雅黑" size="18px" weight="400" font-style="" opacity="1" y="21.75" transform="rotate(0)"><tspan id="SvgjsTspan1222" dy="22" x="50"><tspan id="SvgjsTspan1223" style="text-decoration:;">参与项目</tspan></tspan></text></g></g><g id="SvgjsG1224" transform="translate(298.6571807861328,334.7047567182635)"><path id="SvgjsPath1225" d="M 0 4Q 0 0 4 0L 96 0Q 100 0 100 4L 100 66Q 100 70 96 70L 4 70Q 0 70 0 66Z" stroke="rgba(50,50,50,1)" stroke-width="1" fill-opacity="1" fill="#ffffff"></path><g id="SvgjsG1226"><text id="SvgjsText1227" font-family="微软雅黑" text-anchor="middle" font-size="18px" width="80px" fill="#323232" font-weight="400" align="middle" lineHeight="125%" anchor="middle" family="微软雅黑" size="18px" weight="400" font-style="" opacity="1" y="10.25" transform="rotate(0)"><tspan id="SvgjsTspan1228" dy="22" x="50"><tspan id="SvgjsTspan1229" style="text-decoration:;">提交学习</tspan></tspan><tspan id="SvgjsTspan1230" dy="22" x="50"><tspan id="SvgjsTspan1231" style="text-decoration:;">成果认证</tspan></tspan></text></g></g><g id="SvgjsG1232" transform="translate(418.2226456407036,251.47100830078125)"><path id="SvgjsPath1233" d="M 0 4Q 0 0 4 0L 96 0Q 100 0 100 4L 100 66Q 100 70 96 70L 4 70Q 0 70 0 66Z" stroke="rgba(50,50,50,1)" stroke-width="1" fill-opacity="1" fill="#ffffff"></path><g id="SvgjsG1234"><text id="SvgjsText1235" font-family="微软雅黑" text-anchor="middle" font-size="18px" width="80px" fill="#323232" font-weight="400" align="middle" lineHeight="125%" anchor="middle" family="微软雅黑" size="18px" weight="400" font-style="" opacity="1" y="21.75" transform="rotate(0)"><tspan id="SvgjsTspan1236" dy="22" x="50"><tspan id="SvgjsTspan1237" style="text-decoration:;">成果认证</tspan></tspan></text></g></g><g id="SvgjsG1238" transform="translate(538.6571807861328,334.7047567182635)"><path id="SvgjsPath1239" d="M 0 4Q 0 0 4 0L 96 0Q 100 0 100 4L 100 66Q 100 70 96 70L 4 70Q 0 70 0 66Z" stroke="rgba(50,50,50,1)" stroke-width="1" fill-opacity="1" fill="#ffffff"></path><g id="SvgjsG1240"><text id="SvgjsText1241" font-family="微软雅黑" text-anchor="middle" font-size="18px" width="80px" fill="#323232" font-weight="400" align="middle" lineHeight="125%" anchor="middle" family="微软雅黑" size="18px" weight="400" font-style="" opacity="1" y="10.25" transform="rotate(0)"><tspan id="SvgjsTspan1242" dy="22" x="50"><tspan id="SvgjsTspan1243" style="text-decoration:;">学习成果</tspan></tspan><tspan id="SvgjsTspan1244" dy="22" x="50"><tspan id="SvgjsTspan1245" style="text-decoration:;">验证</tspan></tspan></text></g></g><g id="SvgjsG1246" transform="translate(538.6571807861328,251.47100830078125)"><path id="SvgjsPath1247" d="M 0 4Q 0 0 4 0L 96 0Q 100 0 100 4L 100 66Q 100 70 96 70L 4 70Q 0 70 0 66Z" stroke="rgba(50,50,50,1)" stroke-width="1" fill-opacity="1" fill="#ffffff"></path><g id="SvgjsG1248"><text id="SvgjsText1249" font-family="微软雅黑" text-anchor="middle" font-size="18px" width="80px" fill="#323232" font-weight="400" align="middle" lineHeight="125%" anchor="middle" family="微软雅黑" size="18px" weight="400" font-style="" opacity="1" y="10.25" transform="rotate(0)"><tspan id="SvgjsTspan1250" dy="22" x="50"><tspan id="SvgjsTspan1251" style="text-decoration:;">学习成果</tspan></tspan><tspan id="SvgjsTspan1252" dy="22" x="50"><tspan id="SvgjsTspan1253" style="text-decoration:;">查询</tspan></tspan></text></g></g><g id="SvgjsG1254" transform="translate(418.6571807861328,334.7047567182635)"><path id="SvgjsPath1255" d="M 0 4Q 0 0 4 0L 96 0Q 100 0 100 4L 100 66Q 100 70 96 70L 4 70Q 0 70 0 66Z" stroke="rgba(50,50,50,1)" stroke-width="1" fill-opacity="1" fill="#ffffff"></path><g id="SvgjsG1256"><text id="SvgjsText1257" font-family="微软雅黑" text-anchor="middle" font-size="18px" width="80px" fill="#323232" font-weight="400" align="middle" lineHeight="125%" anchor="middle" family="微软雅黑" size="18px" weight="400" font-style="" opacity="1" y="10.25" transform="rotate(0)"><tspan id="SvgjsTspan1258" dy="22" x="50"><tspan id="SvgjsTspan1259" style="text-decoration:;">学习成果</tspan></tspan><tspan id="SvgjsTspan1260" dy="22" x="50"><tspan id="SvgjsTspan1261" style="text-decoration:;">转换</tspan></tspan></text></g></g><g id="SvgjsG1262" transform="translate(298.6571807861328,251.47100830078125)"><path id="SvgjsPath1263" d="M 0 4Q 0 0 4 0L 96 0Q 100 0 100 4L 100 66Q 100 70 96 70L 4 70Q 0 70 0 66Z" stroke="rgba(50,50,50,1)" stroke-width="1" fill-opacity="1" fill="#ffffff"></path><g id="SvgjsG1264"><text id="SvgjsText1265" font-family="微软雅黑" text-anchor="middle" font-size="18px" width="80px" fill="#323232" font-weight="400" align="middle" lineHeight="125%" anchor="middle" family="微软雅黑" size="18px" weight="400" font-style="" opacity="1" y="10.25" transform="rotate(0)"><tspan id="SvgjsTspan1266" dy="22" x="50"><tspan id="SvgjsTspan1267" style="text-decoration:;">学习记录</tspan></tspan><tspan id="SvgjsTspan1268" dy="22" x="50"><tspan id="SvgjsTspan1269" style="text-decoration:;">与评价</tspan></tspan></text></g></g><g id="SvgjsG1270" transform="translate(160.0488917661561,445.3219089737005)"><path id="SvgjsPath1271" d="M 0 4Q 0 0 4 0L 492 0Q 496 0 496 4L 496 66Q 496 70 492 70L 4 70Q 0 70 0 66Z" stroke-dasharray="10,6" stroke="rgba(50,50,50,1)" stroke-width="1" fill-opacity="1" fill="#ccccff"></path><g id="SvgjsG1272"><text id="SvgjsText1273" font-family="微软雅黑" text-anchor="middle" font-size="18px" width="476px" fill="#323232" font-weight="400" align="middle" lineHeight="125%" anchor="middle" family="微软雅黑" size="18px" weight="400" font-style="" opacity="1" y="21.75" transform="rotate(0)"></text></g></g><g id="SvgjsG1274" transform="translate(194.12091392682044,460.1234546711868)"><path id="SvgjsPath1275" d="M 0 4Q 0 0 4 0L 196 0Q 200 0 200 4L 200 36Q 200 40 196 40L 4 40Q 0 40 0 36Z" stroke="rgba(50,50,50,1)" stroke-width="1" fill-opacity="1" fill="#ffffff"></path><g id="SvgjsG1276"><text id="SvgjsText1277" font-family="微软雅黑" text-anchor="middle" font-size="18px" width="180px" fill="#323232" font-weight="400" align="middle" lineHeight="125%" anchor="middle" family="微软雅黑" size="18px" weight="400" font-style="" opacity="1" y="6.75" transform="rotate(0)"><tspan id="SvgjsTspan1278" dy="22" x="100"><tspan id="SvgjsTspan1279" style="text-decoration:;">华为链</tspan></tspan></text></g></g><g id="SvgjsG1280" transform="translate(427.8051244531367,460.67630110422533)"><path id="SvgjsPath1281" d="M 0 4Q 0 0 4 0L 196 0Q 200 0 200 4L 200 36Q 200 40 196 40L 4 40Q 0 40 0 36Z" stroke="rgba(50,50,50,1)" stroke-width="1" fill-opacity="1" fill="#ffffff"></path><g id="SvgjsG1282"><text id="SvgjsText1283" font-family="微软雅黑" text-anchor="middle" font-size="18px" width="180px" fill="#323232" font-weight="400" align="middle" lineHeight="125%" anchor="middle" family="微软雅黑" size="18px" weight="400" font-style="" opacity="1" y="6.75" transform="rotate(0)"><tspan id="SvgjsTspan1284" dy="22" x="100"><tspan id="SvgjsTspan1285" style="text-decoration:;">MongoDB</tspan></tspan></text></g></g><g id="SvgjsG1286" transform="translate(161.06080551467323,536.7902028937086)"><path id="SvgjsPath1287" d="M 0 4Q 0 0 4 0L 492 0Q 496 0 496 4L 496 66Q 496 70 492 70L 4 70Q 0 70 0 66Z" stroke-dasharray="10,6" stroke="rgba(50,50,50,1)" stroke-width="1" fill-opacity="1" fill="#ff9999"></path><g id="SvgjsG1288"><text id="SvgjsText1289" font-family="微软雅黑" text-anchor="middle" font-size="18px" width="476px" fill="#323232" font-weight="400" align="middle" lineHeight="125%" anchor="middle" family="微软雅黑" size="18px" weight="400" font-style="" opacity="1" y="21.75" transform="rotate(0)"></text></g></g><g id="SvgjsG1290" transform="translate(194.14975162676706,551.7486516471712)"><path id="SvgjsPath1291" d="M 0 4Q 0 0 4 0L 196 0Q 200 0 200 4L 200 36Q 200 40 196 40L 4 40Q 0 40 0 36Z" stroke="rgba(50,50,50,1)" stroke-width="1" fill-opacity="1" fill="#ffffff"></path><g id="SvgjsG1292"><text id="SvgjsText1293" font-family="微软雅黑" text-anchor="middle" font-size="18px" width="180px" fill="#323232" font-weight="400" align="middle" lineHeight="125%" anchor="middle" family="微软雅黑" size="18px" weight="400" font-style="" opacity="1" y="6.75" transform="rotate(0)"><tspan id="SvgjsTspan1294" dy="22" x="100"><tspan id="SvgjsTspan1295" style="text-decoration:;">公有云</tspan></tspan></text></g></g><g id="SvgjsG1296" transform="translate(427.92362536929545,551.9352677719708)"><path id="SvgjsPath1297" d="M 0 4Q 0 0 4 0L 196 0Q 200 0 200 4L 200 36Q 200 40 196 40L 4 40Q 0 40 0 36Z" stroke="rgba(50,50,50,1)" stroke-width="1" fill-opacity="1" fill="#ffffff"></path><g id="SvgjsG1298"><text id="SvgjsText1299" font-family="微软雅黑" text-anchor="middle" font-size="18px" width="180px" fill="#323232" font-weight="400" align="middle" lineHeight="125%" anchor="middle" family="微软雅黑" size="18px" weight="400" font-style="" opacity="1" y="6.75" transform="rotate(0)"><tspan id="SvgjsTspan1300" dy="22" x="100"><tspan id="SvgjsTspan1301" style="text-decoration:;">私有云</tspan></tspan></text></g></g><g id="SvgjsG1302" transform="translate(25.0032958984375,25.004587022881537)"><path id="SvgjsPath1303" d="M 0 4Q 0 0 4 0L 116 0Q 120 0 120 4L 120 56Q 120 60 116 60L 4 60Q 0 60 0 56Z" stroke="rgba(50,50,50,1)" stroke-width="1" fill-opacity="1" fill="#ffffff"></path><g id="SvgjsG1304"><text id="SvgjsText1305" font-family="微软雅黑" text-anchor="middle" font-size="18px" width="100px" fill="#323232" font-weight="400" align="middle" lineHeight="125%" anchor="middle" family="微软雅黑" size="18px" weight="400" font-style="" opacity="1" y="16.75" transform="rotate(0)"><tspan id="SvgjsTspan1306" dy="22" x="60"><tspan id="SvgjsTspan1307" style="text-decoration:;">呈现层</tspan></tspan></text></g></g><g id="SvgjsG1308" transform="translate(25.0032958984375,106.6022012610182)"><path id="SvgjsPath1309" d="M 0 4Q 0 0 4 0L 116 0Q 120 0 120 4L 120 99Q 120 103 116 103L 4 103Q 0 103 0 99Z" stroke="rgba(50,50,50,1)" stroke-width="1" fill-opacity="1" fill="#ffffff"></path><g id="SvgjsG1310"><text id="SvgjsText1311" font-family="微软雅黑" text-anchor="middle" font-size="18px" width="100px" fill="#323232" font-weight="400" align="middle" lineHeight="125%" anchor="middle" family="微软雅黑" size="18px" weight="400" font-style="" opacity="1" y="38.25" transform="rotate(0)"><tspan id="SvgjsTspan1312" dy="22" x="60"><tspan id="SvgjsTspan1313" style="text-decoration:;">用户层</tspan></tspan></text></g></g><g id="SvgjsG1314" transform="translate(25.0032958984375,233.33414689589665)"><path id="SvgjsPath1315" d="M 0 4Q 0 0 4 0L 116 0Q 120 0 120 4L 120 185Q 120 189 116 189L 4 189Q 0 189 0 185Z" stroke="rgba(50,50,50,1)" stroke-width="1" fill-opacity="1" fill="#ffffff"></path><g id="SvgjsG1316"><text id="SvgjsText1317" font-family="微软雅黑" text-anchor="middle" font-size="18px" width="100px" fill="#323232" font-weight="400" align="middle" lineHeight="125%" anchor="middle" family="微软雅黑" size="18px" weight="400" font-style="" opacity="1" y="81.25" transform="rotate(0)"><tspan id="SvgjsTspan1318" dy="22" x="60"><tspan id="SvgjsTspan1319" style="text-decoration:;">应用层</tspan></tspan></text></g></g><g id="SvgjsG1320" transform="translate(25.0032958984375,445.1234546711868)"><path id="SvgjsPath1321" d="M 0 4Q 0 0 4 0L 116 0Q 120 0 120 4L 120 66Q 120 70 116 70L 4 70Q 0 70 0 66Z" stroke="rgba(50,50,50,1)" stroke-width="1" fill-opacity="1" fill="#ffffff"></path><g id="SvgjsG1322"><text id="SvgjsText1323" font-family="微软雅黑" text-anchor="middle" font-size="18px" width="100px" fill="#323232" font-weight="400" align="middle" lineHeight="125%" anchor="middle" family="微软雅黑" size="18px" weight="400" font-style="" opacity="1" y="21.75" transform="rotate(0)"><tspan id="SvgjsTspan1324" dy="22" x="60"><tspan id="SvgjsTspan1325" style="text-decoration:;">数据层</tspan></tspan></text></g></g><g id="SvgjsG1326" transform="translate(25.0032958984375,536.9352677719708)"><path id="SvgjsPath1327" d="M 0 4Q 0 0 4 0L 116 0Q 120 0 120 4L 120 66Q 120 70 116 70L 4 70Q 0 70 0 66Z" stroke="rgba(50,50,50,1)" stroke-width="1" fill-opacity="1" fill="#ffffff"></path><g id="SvgjsG1328"><text id="SvgjsText1329" font-family="微软雅黑" text-anchor="middle" font-size="18px" width="100px" fill="#323232" font-weight="400" align="middle" lineHeight="125%" anchor="middle" family="微软雅黑" size="18px" weight="400" font-style="" opacity="1" y="21.75" transform="rotate(0)"><tspan id="SvgjsTspan1330" dy="22" x="60"><tspan id="SvgjsTspan1331" style="text-decoration:;">云基础设施</tspan></tspan></text></g></g></svg>